<svg width="130" height="137" viewBox="0 0 130 137" fill="none" xmlns="http://www.w3.org/2000/svg">
<g clip-path="url(#clip0_1161_59)">
<path d="M110.87 25.58C103.86 18.57 95.54 13.37 86.46 10.19C81.36 3.97 73.62 0 64.95 0C56.28 0 48.54 3.97 43.44 10.19C34.36 13.37 26.03 18.57 19.03 25.58C6.76 37.85 0 54.16 0 71.51C0 88.86 6.76 105.17 19.02 117.43C31.29 129.7 47.6 136.45 64.94 136.45C82.28 136.45 98.6 129.69 110.86 117.43C123.13 105.16 129.88 88.85 129.88 71.51C129.88 54.17 123.12 37.85 110.86 25.59L110.87 25.58Z" fill="white"/>
<path d="M89.4102 15.4C91.4002 19.2 92.5201 23.53 92.5201 28.02C92.5201 43.84 80.5002 55.6 64.9402 55.6C49.3802 55.6 37.3702 43.84 37.3702 28.02C37.3702 23.53 38.4902 18.94 40.4802 15.4C18.7902 24.83 3.66016 46.44 3.66016 71.59C3.66016 105.39 31.1502 132.79 64.9502 132.79C98.7502 132.79 126.24 105.39 126.24 71.59C126.24 46.44 111.11 24.82 89.4202 15.4H89.4102ZM64.9502 3.73C52.0702 3.73 41.7002 13.93 41.7002 26.29C41.7002 33.46 46.1102 38.22 52.5902 38.65C59.3302 39.08 64.6902 33.98 64.9502 26.81C65.2102 20.59 69.7001 15.49 76.2701 15.49C82.8401 15.49 86.9902 20.76 87.9402 27.07C87.9402 27.24 88.2902 27.24 88.2902 27.07C88.3801 13.84 78.0002 3.73 64.9502 3.73ZM22.6802 72.89C22.6802 78.25 24.6702 83.87 29.5102 86.72L27.6102 88.62C24.3302 87.06 21.5602 84.21 19.6602 80.58C18.0202 84.12 14.7302 87.5 11.6202 88.88L9.80016 87.24C14.4702 83.78 16.8002 78.34 16.8002 72.89V65.97H22.6802V72.89ZM45.8502 70.04C45.8502 71.51 48.1002 72.89 52.0702 72.89C56.0402 72.89 58.2902 71.51 58.2902 70.04C58.2902 68.66 56.1302 67.27 52.0702 67.27C48.0102 67.27 45.8502 68.65 45.8502 70.04ZM64.1802 70.04C64.1802 73.41 59.6902 75.31 52.0802 75.31C44.4702 75.31 39.9802 73.41 39.9802 70.04C39.9802 66.93 44.4702 64.85 52.0802 64.85C59.6902 64.85 64.1802 66.92 64.1802 70.04ZM79.3102 79.46C72.3902 79.46 67.2902 76.61 67.2902 72.29C67.2902 67.97 72.3902 65.2 79.3102 65.2C86.2301 65.2 91.3302 68.05 91.3302 72.29C91.3302 76.53 86.3202 79.46 79.3102 79.46ZM79.3102 76.95C83.0302 76.95 85.4501 75.13 85.4501 72.28C85.4501 69.43 83.0302 67.7 79.3102 67.7C75.5901 67.7 73.1702 69.52 73.1702 72.28C73.1702 75.04 75.5901 76.95 79.3102 76.95ZM30.9002 76.78H25.9702V73.93H30.9002V65.29H36.7802V89.93H30.9002V76.79V76.78ZM42.1402 89.92C41.2802 89.92 40.6702 89.31 40.6702 88.45V83.95H57.6102V82.65H40.6702V80.32H49.0502V78.76H39.2802V76.34H64.8702V78.76H55.1902V80.32H63.4902V86.2H46.5502V87.5H63.6702V89.92H42.1502H42.1402ZM82.3401 83.78V89.92H76.2001V83.78H66.6002V81.27H92.0102V83.78H82.3302H82.3401ZM115.36 83.78V89.92H109.31V83.78H103.86V89.92H97.8102V83.78H93.9202V81.27H119.33V83.78H115.35H115.36ZM106.63 79.46C99.7102 79.46 94.6102 76.61 94.6102 72.29C94.6102 67.97 99.7102 65.2 106.63 65.2C113.55 65.2 118.65 68.05 118.65 72.29C118.65 76.53 113.64 79.46 106.63 79.46ZM106.63 76.95C110.35 76.95 112.77 75.13 112.77 72.28C112.77 69.43 110.35 67.7 106.63 67.7C102.91 67.7 100.49 69.52 100.49 72.28C100.49 75.04 102.91 76.95 106.63 76.95Z" fill="#E60012"/>
</g>
<defs>
<clipPath id="clip0_1161_59">
<rect width="129.9" height="136.45" fill="white"/>
</clipPath>
</defs>
</svg>
