<svg width="32" height="32" viewBox="0 0 32 32" fill="none" xmlns="http://www.w3.org/2000/svg">
<rect x="3.21924" y="10.5977" width="25.5619" height="12.3686" rx="1.23686" fill="#00874A"/>
<rect x="8.9917" y="6.06152" width="15.6669" height="21.0267" rx="0.824576" fill="#70D09A"/>
<rect x="7.34229" y="4" width="15.6669" height="21.0267" rx="0.824576" fill="#C3EAD2"/>
<path fill-rule="evenodd" clip-rule="evenodd" d="M4.4561 10.5977C3.773 10.5977 3.21924 11.1514 3.21924 11.8345V23.3786C3.21924 23.3854 3.21929 23.3921 3.2194 23.3989V27.5009C3.2194 27.9563 3.58857 28.3254 4.04398 28.3254H27.9567C28.4121 28.3254 28.7813 27.9563 28.7813 27.5009V14.3076C28.7813 13.8522 28.4121 13.4831 27.9567 13.4831H13.89L13.0172 11.3636C12.8264 10.9001 12.3748 10.5977 11.8735 10.5977H4.4561Z" fill="#4CC584"/>
<rect x="9.40283" y="6.06152" width="11.5441" height="0.824576" rx="0.412288" fill="#9CDDB6"/>
<rect x="9.40283" y="7.71094" width="11.5441" height="0.824576" rx="0.412288" fill="#9CDDB6"/>
</svg>
